<svg width="200" height="150" viewBox="0 0 200 150" fill="none" xmlns="http://www.w3.org/2000/svg">
  <rect width="200" height="150" fill="#E2D6CE"/>
  <g opacity=".95">
    <path d="M0 0H20V20H0z" fill="#9EBEC1"/><path d="M20 0H40V20H20z" fill="#D6A3A1"/><path d="M40 0H60V20H40z" fill="#BCD5C3"/><path d="M60 0H80V20H60z" fill="#D7C4A3"/><path d="M80 0H100V20H80z" fill="#9DBAC5"/><path d="M100 0H120V20H100z" fill="#E3C7C5"/><path d="M120 0H140V20H120z" fill="#AFC9B8"/><path d="M140 0H160V20H140z" fill="#C2A7A2"/><path d="M160 0H180V20H160z" fill="#C9D8C0"/><path d="M180 0H200V20H180z" fill="#D5B6A6"/>
    <path d="M0 20H20V40H0z" fill="#D9C4AF"/><path d="M20 20H40V40H20z" fill="#B8C7C8"/><path d="M40 20H60V40H40z" fill="#E2C4CA"/><path d="M60 20H80V40H60z" fill="#A9C8BF"/><path d="M80 20H100V40H80z" fill="#D2AFAD"/><path d="M100 20H120V40H100z" fill="#B8C8D0"/><path d="M120 20H140V40H120z" fill="#D8CEAA"/><path d="M140 20H160V40H140z" fill="#A8C0BD"/><path d="M160 20H180V40H160z" fill="#D1ABA4"/><path d="M180 20H200V40H180z" fill="#B9C7D2"/>
    <path d="M0 40H20V60H0z" fill="#ABC8BC"/><path d="M20 40H40V60H20z" fill="#D7B3A6"/><path d="M40 40H60V60H40z" fill="#BBC8D2"/><path d="M60 40H80V60H60z" fill="#E5D1A8"/><path d="M80 40H100V60H80z" fill="#B4D0C5"/><path d="M100 40H120V60H100z" fill="#C8AAA5"/><path d="M120 40H140V60H120z" fill="#E0C7C5"/><path d="M140 40H160V60H140z" fill="#A9C3CA"/><path d="M160 40H180V60H160z" fill="#D9C6A5"/><path d="M180 40H200V60H180z" fill="#B2C6BC"/>
    <path d="M0 60H20V80H0z" fill="#D3B1AA"/><path d="M20 60H40V80H20z" fill="#AFC7CE"/><path d="M40 60H60V80H40z" fill="#D7C5A6"/><path d="M60 60H80V80H60z" fill="#C4A5A0"/><path d="M80 60H100V80H80z" fill="#E5C8CB"/><path d="M100 60H120V80H100z" fill="#B4CBBF"/><path d="M120 60H140V80H120z" fill="#D7BFB1"/><path d="M140 60H160V80H140z" fill="#B7C4CE"/><path d="M160 60H180V80H160z" fill="#E0D2AD"/><path d="M180 60H200V80H180z" fill="#C49B96"/>
    <path d="M0 80H20V100H0z" fill="#B7CDBF"/><path d="M20 80H40V100H20z" fill="#DCC4B2"/><path d="M40 80H60V100H40z" fill="#C79F9E"/><path d="M60 80H80V100H60z" fill="#AFC5CE"/><path d="M80 80H100V100H80z" fill="#D8C6A6"/><path d="M100 80H120V100H100z" fill="#B0CCC4"/><path d="M120 80H140V100H120z" fill="#D4ACA7"/><path d="M140 80H160V100H140z" fill="#E0C9CA"/><path d="M160 80H180V100H160z" fill="#A9BEC7"/><path d="M180 80H200V100H180z" fill="#D5C0A5"/>
    <path d="M0 100H20V120H0z" fill="#D0A9A3"/><path d="M20 100H40V120H20z" fill="#B7C5CD"/><path d="M40 100H60V120H40z" fill="#E1D0AD"/><path d="M60 100H80V120H60z" fill="#B5CDBE"/><path d="M80 100H100V120H80z" fill="#C5A19D"/><path d="M100 100H120V120H100z" fill="#E2C7C9"/><path d="M120 100H140V120H120z" fill="#ADC5CD"/><path d="M140 100H160V120H140z" fill="#D8BCAF"/><path d="M160 100H180V120H160z" fill="#B2C9BF"/><path d="M180 100H200V120H180z" fill="#CCA29D"/>
    <path d="M0 120H20V150H0z" fill="#B5C9C0"/><path d="M20 120H40V150H20z" fill="#D7B7AB"/><path d="M40 120H60V150H40z" fill="#B8C4D0"/><path d="M60 120H80V150H60z" fill="#D8C4A8"/><path d="M80 120H100V150H80z" fill="#CBA5A0"/><path d="M100 120H120V150H100z" fill="#ACCAC2"/><path d="M120 120H140V150H120z" fill="#E2C8C8"/><path d="M140 120H160V150H140z" fill="#AFC1CA"/><path d="M160 120H180V150H160z" fill="#D8C7A8"/><path d="M180 120H200V150H180z" fill="#B8C8BD"/>
  </g>
  <path d="M0 20H200M0 40H200M0 60H200M0 80H200M0 100H200M0 120H200M20 0V150M40 0V150M60 0V150M80 0V150M100 0V150M120 0V150M140 0V150M160 0V150M180 0V150" stroke="#836F6B" stroke-opacity=".25"/>
</svg>
