<svg width="152" height="203" viewBox="0 0 152 203" fill="none" xmlns="http://www.w3.org/2000/svg">
  <rect width="152" height="203" fill="#F8F8F0"/>
  <path d="M-16 134C48 117 77 78 86 20" stroke="#769E61" stroke-width="8" stroke-linecap="round"/>
  <path d="M35 25C7 19 -8 38 3 63C15 90 52 97 76 75C105 48 74 13 35 25Z" fill="#1F6E2E"/>
  <path d="M43 28C45 47 35 56 20 65M52 33C54 51 51 63 43 78M63 39C63 56 66 67 74 78M33 41C20 41 11 45 2 56M68 28C81 30 88 36 94 46" stroke="#F8F8F0" stroke-width="6" stroke-linecap="round"/>
  <path d="M84 15C95 64 111 99 166 116" stroke="#769E61" stroke-width="8" stroke-linecap="round"/>
  <path d="M111 67C82 57 59 76 65 104C71 134 109 150 139 133C174 113 156 79 111 67Z" fill="#1E682B"/>
  <path d="M116 73C112 91 99 99 82 106M127 80C122 98 121 111 127 128M139 90C136 106 140 119 150 132M105 83C91 81 80 84 67 94M146 79C158 84 164 92 169 104" stroke="#F8F8F0" stroke-width="6" stroke-linecap="round"/>
  <path d="M-14 184C42 170 70 151 93 116" stroke="#769E61" stroke-width="8" stroke-linecap="round"/>
  <path d="M31 130C0 126 -18 148 -7 174C6 203 45 208 70 185C100 157 73 134 31 130Z" fill="#235F29"/>
  <path d="M37 135C38 153 27 163 12 172M48 139C49 157 46 170 36 186M59 145C58 162 61 174 70 185M26 145C13 145 2 150 -9 161M66 136C78 139 85 146 91 157" stroke="#F8F8F0" stroke-width="6" stroke-linecap="round"/>
</svg>
