<svg width="224" height="150" viewBox="0 0 224 150" fill="none" xmlns="http://www.w3.org/2000/svg">
  <rect width="224" height="150" fill="#CDBBAE"/>
  <rect y="72" width="224" height="78" fill="#E3D2C1"/>
  <rect x="36" y="86" width="56" height="46" rx="10" fill="#212D31"/>
  <rect x="47" y="94" width="34" height="28" rx="8" fill="#CED6D5"/>
  <rect x="92" y="42" width="100" height="72" rx="4" fill="#E9E4DB"/>
  <rect x="99" y="49" width="86" height="58" fill="#CFD9D8"/>
  <path d="M105 57H142M105 66H132M105 75H151M105 84H128M153 57H178M153 66H172M153 75H181M153 84H174" stroke="#6F8380" stroke-width="2" stroke-linecap="round"/>
  <rect x="14" y="-6" width="34" height="70" rx="4" fill="#273439"/>
  <rect x="17" y="0" width="28" height="49" fill="#DCE5E4"/>
  <path d="M20 53H43M20 59H43" stroke="#121A1D" stroke-width="3"/>
  <rect x="65" y="36" width="36" height="42" rx="5" fill="#79533D"/>
  <path d="M70 34L66 14M78 34L81 9M87 34L94 13M95 36L111 19" stroke="#2F2E2A" stroke-width="4" stroke-linecap="round"/>
  <rect x="70" y="41" width="25" height="31" rx="4" fill="#A06D4B"/>
  <circle cx="112" cy="105" r="5" fill="#E36F52"/>
  <circle cx="146" cy="79" r="4" fill="#E36F52"/>
  <rect x="141" y="116" width="42" height="8" rx="4" fill="#B98F78"/>
  <rect x="191" y="20" width="33" height="130" fill="#F3ECE4" fill-opacity=".35"/>
</svg>
